<?xml version="1.0" encoding="UTF-8"?>
<!-- Generator: Adobe Illustrator 21.0.0, SVG Export Plug-In . SVG Version: 6.00 Build 0)  -->
<svg version="1.1" id="Layer_1" xmlns="http://www.w3.org/2000/svg" xmlns:xlink="http://www.w3.org/1999/xlink" x="0px" y="0px" viewBox="0 0 315 153" style="enable-background:new 0 0 315 153;" xml:space="preserve">
<style type="text/css">
	.st0{fill:#393b3e;}
	.st1{fill:none;}
	.st2{font-family:'BemboStd';}
	.st3{font-size:20.98px;}
</style>
<g>
	<rect x="122.7" y="11.3" class="st0" width="0.6" height="128.8"/>
	<rect x="140.1" y="55.8" class="st1" width="165.9" height="39.8"/>
	<text transform="matrix(1 0 0 1 140.0972 69.917)" class="st0 st2 st3">MINISTERIO</text>
	<text transform="matrix(1 0 0 1 140.0972 95.0781)" class="st0 st2 st3">DE EDUCACIÓN</text>
	<g>
		<g>
			<g>
				<path class="st0" d="M25.1,116.5c-1.4,0.7-3.2,0.9-3.8,0.9c-3.2,0-4.6-2.4-4.6-4.5c0-2.1,1.5-4.8,5-4.8c1.5,0,2.5,0.5,2.9,0.5      c0.1,0,0.2,0,0.3-0.1h0.2v2.3h-0.3c-0.4-1.8-1.6-2.3-2.9-2.3c-2.5,0-3.8,2.1-3.8,4.4c0,2.9,2.1,4.2,3.7,4.2      c0.6,0,1.4-0.2,2.2-0.5v-1.8c0-0.8-0.3-1.1-1.1-1.1h-0.5v-0.2h3.9v0.2c-0.7,0-1,0.3-1,0.9L25.1,116.5L25.1,116.5z"/>
				<path class="st0" d="M31.3,117.4c-2.8,0-5.2-1.8-5.2-4.5c0-2.9,2.2-4.9,5.3-4.9c2.7,0,5,1.9,5,4.4      C36.4,115.3,34.1,117.4,31.3,117.4z M31,108.4c-2.5,0-3.5,2.3-3.5,4.1c0,2.7,1.8,4.6,4.1,4.6c2.3,0,3.4-2.1,3.4-4.1      C35,110.3,33.3,108.4,31,108.4z"/>
				<path class="st0" d="M37.7,109.8c0-0.8-0.1-1.3-1.1-1.3h-0.5v-0.3c0.4,0,1.4-0.1,1.8-0.1c0.8,0,1.9,0,2.1,0      c1.3,0,2.4,0.2,2.9,0.6c0.6,0.4,0.9,0.9,0.9,1.6c0,0.8-0.7,1.6-1.6,1.7v0c1.3,0.4,2.1,1.3,2.1,2.4c0,1.1-0.8,2.7-3.1,2.7H36      v-0.3h0.3c1.2,0,1.4-0.3,1.4-1.2L37.7,109.8L37.7,109.8z M38.9,112h1.6c1.4,0,2.1-0.5,2.1-1.7c0-1-0.6-1.9-2.4-1.9      c-0.3,0-0.9,0-1.3,0V112z M38.9,115.3c0,1.1,0.4,1.5,1.6,1.5c1.9,0,2.4-1.2,2.4-2.3c0-1.1-0.8-2.2-2.5-2.2h-1.5V115.3z"/>
				<path class="st0" d="M48.1,117.2h-3.5v-0.3c0.9,0,1.1-0.3,1.1-1.2v-6.1c0-0.8-0.3-1-1.1-1.1v-0.3h3.5v0.3      c-0.9,0-1.2,0.2-1.2,1.2v6.1c0,0.8,0.2,1.1,1.2,1.1V117.2z"/>
				<path class="st0" d="M55.1,113.9h-0.3c-0.1-1-0.4-1.1-1-1.1h-2.4v3.1c0,0.6,0.2,0.8,0.8,0.8h2.2c1,0,1.3-0.4,1.7-1.6h0.2      l-0.2,2.1h-7.6v-0.3h0.4c1.1,0,1.3-0.3,1.3-1.2v-6.1c0-0.8-0.2-1.1-1.1-1.1h-0.3v-0.3h6.9l0.1,2h-0.2c-0.2-1.2-0.5-1.5-1.1-1.5      h-3v3.5H54c0.5,0,0.8-0.2,0.8-1.1h0.3L55.1,113.9L55.1,113.9z"/>
				<path class="st0" d="M58.6,115.8c0,0.8,0.4,1.1,1.1,1.1h0.3v0.3h-4v-0.3h0.2c0.8,0,1.1-0.2,1.1-1.2v-6c0-0.9-0.2-1.1-1.1-1.1H56      v-0.3c0.4,0,1.2,0,1.8-0.1c0.6,0,0.9,0,1.8,0c2.7,0,3.8,1.1,3.8,2.5c0,1.1-0.7,2-1.9,2.3c0.5,0.4,1,0.8,1.6,1.5l1.1,1.1      c0.8,0.8,1.7,1.4,2.8,1.5v0.2c-2.5,0.1-3.2-0.4-4.4-1.7l-0.9-0.9c-0.6-0.6-1.1-1.1-1.5-1.3c-0.4,0-0.6,0-1,0c-0.3,0-0.5,0-0.7,0      L58.6,115.8L58.6,115.8z M58.6,113.1c0.4,0,0.6,0,0.9,0c1.6,0,2.6-0.7,2.6-2.4c0-1.3-0.6-2.4-2.8-2.4c-0.3,0-0.4,0-0.7,0      L58.6,113.1L58.6,113.1z"/>
				<path class="st0" d="M75.3,117.4l-7.4-7.8v6.1c0,1.1,0.2,1.3,1.5,1.3v0.3H66V117h0c0.9,0,1.2-0.3,1.2-1v-7      c-0.3-0.2-0.7-0.4-1.2-0.4v-0.3h2.3l6.7,7v-5.7c0-0.9-0.2-1.1-1.4-1.1v-0.3h3.4v0.3c-1.1,0-1.3,0.2-1.3,0.7v8H75.3z"/>
				<path class="st0" d="M81.8,117.4c-2.8,0-5.2-1.8-5.2-4.5c0-2.9,2.2-4.9,5.3-4.9c2.7,0,5,1.9,5,4.4      C86.9,115.3,84.6,117.4,81.8,117.4z M81.4,108.4c-2.5,0-3.5,2.3-3.5,4.1c0,2.7,1.8,4.6,4.1,4.6c2.3,0,3.4-2.1,3.4-4.1      C85.5,110.3,83.8,108.4,81.4,108.4z"/>
				<path class="st0" d="M91.7,109.7c0-0.9-0.2-1.2-1.1-1.2h-0.3v-0.3c0.5,0,1.3,0,2-0.1c0.8,0,1.7,0,2.4,0c3.8,0,5.5,1.9,5.5,4.3      c0,2.2-1.7,4.8-5.3,4.8h-4.6v-0.3h0.2c0.8,0,1.1-0.2,1.1-1.1L91.7,109.7L91.7,109.7z M92.9,116.1c0,0.6,0,0.8,1.2,0.8      c1.9,0,2.7-0.3,3.6-1.2c0.5-0.5,1.2-1.6,1.2-3.1c0-1.1-0.3-2.2-1.1-3.1c-0.6-0.6-1.7-1.2-3.7-1.2c-0.6,0-1,0-1.1,0L92.9,116.1      L92.9,116.1z"/>
				<path class="st0" d="M106.5,113.9h-0.3c-0.1-1-0.4-1.1-1-1.1h-2.4v3.1c0,0.6,0.2,0.8,0.8,0.8h2.2c1,0,1.3-0.4,1.7-1.6h0.2      l-0.2,2.1h-7.6v-0.3h0.4c1.1,0,1.3-0.3,1.3-1.2v-6.1c0-0.8-0.2-1.1-1.1-1.1h-0.3v-0.3h6.9l0.1,2h-0.2c-0.2-1.2-0.5-1.5-1.1-1.5      h-3v3.5h2.6c0.5,0,0.8-0.2,0.8-1.1h0.3L106.5,113.9L106.5,113.9z"/>
			</g>
			<g>
				<path class="st0" d="M23.5,127.5h-0.3c-0.1-1.1-0.4-1.1-1-1.1h-2.5v3.1c0,0.7,0.2,0.8,0.8,0.8h2.2c1,0,1.3-0.4,1.7-1.7h0.2      l-0.2,2.2h-7.7v-0.3h0.4c1.2,0,1.4-0.3,1.4-1.2v-6.1c0-0.8-0.2-1.2-1.2-1.2h-0.3v-0.3h7l0.1,2h-0.2c-0.2-1.3-0.6-1.5-1.1-1.5      h-3.1v3.6h2.6c0.5,0,0.8-0.2,0.8-1.1h0.3V127.5z"/>
				<path class="st0" d="M31.7,130.8h-6.5v-0.3h0.5c0.7,0,0.9-0.2,0.9-1v-6.4c0-0.8-0.2-1.1-1.1-1.1h-0.2v-0.3h4.3v0.3h-0.5      c-0.9,0-1.2,0.1-1.2,1v6.7c0,0.4,0.2,0.5,0.6,0.5h2.1c0.8,0,1.1-0.3,2-1.6h0.2L31.7,130.8z"/>
				<path class="st0" d="M37,128.6c0.3,1.3,1.3,2.1,2.5,2.1c1,0,2-0.6,2-1.7c0-2.1-4.7-2.7-4.7-5.3c0-1.2,1.1-2.1,2.6-2.1      c1.2,0,1.5,0.4,2,0.4c0.1,0,0.2,0,0.2-0.2h0.2l0.2,1.9h-0.2c-0.4-1.1-1.3-1.7-2.3-1.7c-1,0-1.6,0.6-1.6,1.4      c0,2.1,4.7,2.6,4.7,5.3c0,1.4-1.3,2.5-2.9,2.5c-0.8,0-1.8-0.4-2-0.4c-0.1,0-0.2,0.1-0.3,0.2h-0.2l-0.3-2.2L37,128.6L37,128.6z"/>
				<path class="st0" d="M45.9,126.8l-0.8,2.3c-0.1,0.3-0.3,0.7-0.3,0.9c0,0.4,0.4,0.5,1.2,0.5h0.2v0.3h-3.4v-0.3      c0.9,0,1.1-0.2,1.6-1.5l2.7-7.2l-0.1-0.3h1.3l3,8.1c0.3,0.8,0.6,0.9,1.3,0.9v0.3h-4v-0.3H49c0.8,0,1.1-0.1,1.1-0.5      c0-0.2-0.1-0.4-0.2-0.6l-1-2.6L45.9,126.8L45.9,126.8z M47.4,122.8l-1.3,3.4h2.5L47.4,122.8z"/>
				<path class="st0" d="M59,130.8h-6.5v-0.3H53c0.7,0,0.9-0.2,0.9-1v-6.4c0-0.8-0.2-1.1-1.1-1.1h-0.2v-0.3h4.3v0.3h-0.5      c-0.9,0-1.2,0.1-1.2,1v6.7c0,0.4,0.2,0.5,0.6,0.5h2.1c0.8,0,1.1-0.3,2-1.6h0.2L59,130.8z"/>
				<path class="st0" d="M62.3,131l-3.2-7.9c-0.4-0.9-0.5-1.1-1.4-1.1v-0.3h4v0.3c-1.3,0-1.7,0.3-1.4,1l2.6,6.5l2.3-6      c0.2-0.4,0.2-0.7,0.2-0.9c0-0.4-0.4-0.6-1.3-0.6v-0.3h3.4v0.3c-0.8,0-1.1,0.4-1.5,1.3l-3,7.8L62.3,131L62.3,131z"/>
				<path class="st0" d="M68.9,126.8l-0.8,2.3c-0.1,0.3-0.3,0.7-0.3,0.9c0,0.4,0.4,0.5,1.2,0.5h0.2v0.3h-3.4v-0.3      c0.9,0,1.1-0.2,1.6-1.5l2.7-7.2l-0.1-0.3h1.3l3,8.1c0.3,0.8,0.6,0.9,1.3,0.9v0.3h-4v-0.3H72c0.8,0,1.1-0.1,1.1-0.5      c0-0.2-0.1-0.4-0.2-0.6l-1-2.6L68.9,126.8L68.9,126.8z M70.4,122.8l-1.3,3.4h2.5L70.4,122.8z"/>
				<path class="st0" d="M76.8,123.2c0-0.9-0.2-1.2-1.1-1.2h-0.3v-0.3c0.5,0,1.3,0,2.1-0.1s1.7,0,2.4,0c3.8,0,5.5,1.9,5.5,4.4      c0,2.2-1.7,4.8-5.4,4.8h-4.6v-0.3h0.2c0.8,0,1.1-0.2,1.1-1.1L76.8,123.2L76.8,123.2z M78,129.7c0,0.6,0,0.8,1.2,0.8      c1.9,0,2.7-0.3,3.7-1.2c0.5-0.5,1.2-1.7,1.2-3.2c0-1.1-0.3-2.3-1.2-3.1c-0.7-0.7-1.7-1.2-3.8-1.2c-0.6,0-1,0-1.2,0L78,129.7      L78,129.7z"/>
				<path class="st0" d="M91.3,131c-2.9,0-5.3-1.8-5.3-4.6c0-2.9,2.2-4.9,5.3-4.9c2.7,0,5.1,1.9,5.1,4.5C96.5,129,94.2,131,91.3,131      z M91,121.9c-2.5,0-3.6,2.4-3.6,4.1c0,2.7,1.9,4.6,4.2,4.6c2.4,0,3.5-2.1,3.5-4.2C95.1,123.8,93.4,121.9,91,121.9z"/>
				<path class="st0" d="M99,129.4c0,0.9,0.4,1.1,1.2,1.1h0.3v0.3h-4.1v-0.3h0.2c0.8,0,1.2-0.2,1.2-1.2v-6.1c0-0.9-0.2-1.2-1.1-1.2      h-0.3v-0.3c0.4,0,1.3,0,1.8-0.1c0.6,0,0.9,0,1.8,0c2.7,0,3.9,1.1,3.9,2.6c0,1.1-0.7,2-1.9,2.3c0.5,0.4,1,0.8,1.7,1.5l1.1,1.1      c0.8,0.8,1.7,1.4,2.9,1.5v0.2c-2.5,0.1-3.2-0.4-4.5-1.7l-1-1c-0.6-0.6-1.1-1.1-1.5-1.3c-0.4,0-0.6,0-1,0c-0.3,0-0.5,0-0.7,0      L99,129.4L99,129.4z M99,126.7c0.4,0,0.6,0,0.9,0c1.6,0,2.7-0.7,2.7-2.4c0-1.3-0.6-2.4-2.9-2.4c-0.3,0-0.5,0-0.7,0L99,126.7      L99,126.7z"/>
			</g>
		</g>
		<polygon class="st0" points="62.3,20.4 63.3,22.5 65.7,22.9 64,24.6 64.4,27 62.3,25.8 60.2,27 60.6,24.6 58.8,22.9 61.2,22.5       "/>
		<polygon class="st0" points="78,24.4 79.1,26.6 81.4,26.9 79.7,28.6 80.1,31 78,29.8 75.8,31 76.2,28.6 74.5,26.9 76.9,26.6   "/>
		<polygon class="st0" points="90,34.1 91.1,36.3 93.5,36.6 91.7,38.3 92.1,40.7 90,39.6 87.9,40.7 88.3,38.3 86.6,36.6 89,36.3       "/>
		<polygon class="st0" points="96.9,48.1 98,50.2 100.3,50.6 98.6,52.3 99,54.6 96.9,53.5 94.8,54.6 95.2,52.3 93.4,50.6 95.8,50.2       "/>
		<polygon class="st0" points="97.2,64.3 98.2,66.4 100.6,66.8 98.9,68.4 99.3,70.8 97.2,69.7 95,70.8 95.4,68.4 93.7,66.8     96.1,66.4   "/>
		<polygon class="st0" points="90,78.3 91.1,80.4 93.5,80.8 91.7,82.5 92.1,84.8 90,83.7 87.9,84.8 88.3,82.5 86.6,80.8 89,80.4       "/>
		<polygon class="st0" points="78,88 79.1,90.2 81.5,90.5 79.8,92.2 80.2,94.6 78,93.5 75.9,94.6 76.3,92.2 74.6,90.5 77,90.2   "/>
		<polygon class="st0" points="62.3,91.5 63.3,93.6 65.7,94 64,95.7 64.4,98 62.3,96.9 60.1,98 60.5,95.7 58.8,94 61.2,93.6   "/>
		<polygon class="st0" points="46.8,88 47.9,90.2 50.3,90.5 48.6,92.2 49,94.6 46.8,93.5 44.7,94.6 45.1,92.2 43.4,90.5 45.8,90.2       "/>
		<polygon class="st0" points="34.9,78.3 35.9,80.5 38.3,80.8 36.6,82.5 37,84.9 34.9,83.8 32.7,84.9 33.1,82.5 31.4,80.8     33.8,80.5   "/>
		<polygon class="st0" points="27.7,64.4 28.8,66.6 31.2,66.9 29.5,68.6 29.9,71 27.7,69.8 25.6,71 26,68.6 24.3,66.9 26.6,66.6       "/>
		<polygon class="st0" points="27.7,48.1 28.8,50.2 31.2,50.6 29.5,52.3 29.9,54.6 27.7,53.5 25.6,54.6 26,52.3 24.3,50.6     26.6,50.2   "/>
		<polygon class="st0" points="34.5,34.2 35.6,36.3 37.9,36.7 36.2,38.4 36.6,40.7 34.5,39.6 32.4,40.7 32.8,38.4 31,36.7     33.4,36.3   "/>
		<polygon class="st0" points="46.8,24.4 47.9,26.6 50.3,26.9 48.5,28.6 49,31 46.8,29.8 44.7,31 45.1,28.6 43.4,26.9 45.7,26.6       "/>
		<g>
			<path class="st0" d="M80.6,64.8C80.6,64.8,80.6,64.8,80.6,64.8c-0.2,0-0.3,0.1-0.3,0.3c0,0.2,0.1,0.3,0.3,0.3h0h0     c0.2,0,0.3-0.1,0.3-0.3C80.9,64.9,80.8,64.8,80.6,64.8L80.6,64.8z"/>
			<path class="st0" d="M83.9,60.7c0,0-0.5,0.1-0.7,0.3c-0.1,0.1-0.2,0.1-0.4,0.2c0.1-0.2,0.1-0.3,0.1-0.6c0-0.5,0-1.4,0-1.4     s-0.2,0.5-0.4,0.7c-0.3,0.1-0.8,0.3-0.8,0.5s-0.4,0.2-0.6,0.7c-0.1,0.5-0.1,0.5-0.2,0.7c0,0-0.1,0.1-0.1,0.2     c0.2-0.8,0.3-1.7,0.3-2.4c0-0.1,0-0.2,0-0.4c0.1-0.1,0.3-0.3,0.3-0.3c0.1-0.2,1.5-0.6,1.7-1.1c0.2-0.4,0.3-0.6,0.4-0.8     c0.1-0.2,0.2-0.8,0.2-1c0-0.2-0.1-1.2-0.2-1.4c0,0-0.4,0.2-0.6,0.4c0,0-0.1,0.1-0.2,0.2c0-0.1,0-0.2-0.1-0.4     c-0.2-0.5-0.5-1.1-0.5-1.1s-0.2,0.4-0.4,0.6c-0.2,0.4-0.4,0.5-0.5,0.7c0,0.2-0.3,0.3-0.4,0.7c0,0.1,0,0.2-0.1,0.3     c-0.1-0.8-0.2-1.5-0.4-2.2c0.1-0.2,0.1-0.6,0.3-0.8c0.3-0.2,0.3-0.5,0.3-0.9c0-0.4-0.1-0.6-0.1-0.8c0-0.2-0.7-1.2-0.7-1.4     c0,0-0.3,0.8-0.4,1.1c-0.3-0.3-0.8-0.7-1.1-0.8c-0.2-0.3-0.3-0.6-0.5-0.9c0-0.1,0-0.3,0-0.5c0-0.3,0.2-0.7,0-0.9     c-0.1-0.2-0.3-0.4-0.4-0.7c-0.1-0.3-0.1-0.4-0.4-0.7c-0.2-0.2-0.5-0.5-0.5-0.5s-0.1,0.4-0.2,0.7c-0.1,0-0.2-0.1-0.2-0.1     c0,0-0.2-0.1-0.3-0.2c-0.2-0.2-0.3-0.4-0.4-0.6c0.1,0,0.1-0.1,0.1-0.2c0-0.2-0.1-0.3-0.3-0.3s-0.3,0.1-0.3,0.3     c0,0.2,0.1,0.3,0.3,0.3c0.1,0,0.1,0,0.2,0c0,0.1,0.2,0.2,0.3,0.5c-0.2-0.1-0.3-0.2-0.4-0.2c-0.1-0.1-0.2,0.8,0.1,1.3     c0,0-0.1,0-0.1,0c-0.5-0.2-1.1-0.1-1.1-0.1c0.1,0,0.4,0.4,0.5,0.5c0,0.2,0.4,0.6,0.5,0.7c0.2,0.1,0.5,0.3,0.7,0.5     c0.2,0.2,0.7,0.2,1.1,0.2c0.2,0.1,0.3,0.1,0.4,0.1c0.2,0.3,0.3,0.6,0.5,0.8c0,0.2-0.1,0.6-0.1,0.8l0,0l0,0c-0.2,0-1-0.2-1-0.2     c0.1,0.4,0.2,0.9,0.4,1.1c0,0-0.1,0.1-0.1,0.2s0,0.2,0.1,0.3c0,0,0.2,0.3,0.4,0.4l-3.7,2.6c0.3-4.4-0.2-8.6-0.4-9.5     c0.4-0.2,0.3-0.4,0.3-0.4l-0.2-0.4c0,0,0.1,0,0.2,0c0.1,0,0.2,0,0.2-0.1c0.1-0.1,0.1-0.3,0-0.4c0,0-0.1-0.1-0.3-0.2l0.5-0.1     l0.3-1.3l0,0l0,0l-1.3,0.4l0,0.5c-0.1-0.2-0.2-0.2-0.2-0.2c-0.2-0.1-0.4-0.1-0.4,0c-0.1,0.1-0.1,0.3,0,0.4c0,0,0.2,0.2,0.4,0.2v0     l-6.2,6.8l-4.1-6.9c0.2-1.7-0.6-4.2-0.7-4.3c0-0.2,0.1-0.4,0.1-0.7c0.3-0.1,0.4-0.3,0.4-0.4l0,0l0,0l0,0c0,0-0.3-0.4-0.5-0.5     c0.1,0,0.2,0,0.2,0h0c0.2,0,0.4-0.1,0.4-0.3s-0.2-0.3-0.3-0.3l0,0c0,0-0.2,0-0.4,0l0.3-0.4l-0.6-1.1l0,0l0,0l-0.6,1.1l0.3,0.4     c-0.2,0-0.3,0-0.3,0c-0.1,0-0.2,0-0.2,0.1c0,0-0.1,0.1-0.1,0.2c0,0.1,0,0.2,0.1,0.2c0.1,0.1,0.2,0.1,0.2,0.1c0,0,0,0,0,0     c0,0,0.1,0,0.2,0c-0.1,0.1-0.2,0.2-0.3,0.4c0,0-0.1,0.1-0.1,0.1l0,0c0,0,0,0,0,0c0,0,0,0,0,0c0,0.1,0.1,0.2,0.2,0.2     c-0.5,0.9-1.6,3.4-1,6.1L57,51.4l-6.2-6.8c0.3,0,0.5-0.2,0.5-0.2c0.1-0.1,0.1-0.2,0.1-0.2c0-0.1,0-0.2-0.1-0.2     c0,0-0.1-0.1-0.2-0.1s-0.2,0-0.2,0.1c0,0-0.1,0.1-0.2,0.3l0-0.5l-1.3-0.4l0,0l0,0l0.3,1.3l0.5,0.1c-0.2,0.1-0.3,0.2-0.3,0.2     c-0.1,0.1-0.1,0.2-0.1,0.2s0,0.2,0.1,0.2c0,0,0.1,0.1,0.2,0.1l0,0c0,0,0.1,0,0.2,0L50,45.7c0,0-0.1,0.2,0.3,0.4     c-0.1,0.9-0.6,5.1-0.4,9.5l-3.7-2.6c0.2-0.1,0.4-0.3,0.4-0.4c0-0.1,0.1-0.2,0.1-0.2c0-0.1,0-0.1-0.1-0.2c0.2-0.2,0.3-0.7,0.4-1.1     c0,0-0.8,0.2-1,0.2l0,0l0,0c0-0.2,0-0.6-0.1-0.8c0.2-0.3,0.3-0.6,0.5-0.8c0.1,0,0.2,0,0.4-0.1c0.4,0,1,0,1.1-0.2s0.5-0.4,0.7-0.5     c0.2-0.1,0.5-0.5,0.5-0.7c0-0.2,0.4-0.5,0.5-0.5c0,0-0.5,0-1.1,0.1c0,0-0.1,0-0.1,0c0.3-0.5,0.2-1.4,0.1-1.3     c-0.1,0-0.2,0.1-0.4,0.2c0.2-0.3,0.3-0.4,0.3-0.5c0,0,0.1,0,0.2,0c0.2,0,0.3-0.1,0.3-0.3c0-0.2-0.1-0.3-0.3-0.3     c-0.2,0-0.3,0.1-0.3,0.3c0,0.1,0,0.2,0.1,0.2c-0.2,0.2-0.3,0.4-0.4,0.6c-0.1,0.1-0.2,0.1-0.3,0.2c-0.1,0-0.2,0-0.2,0.1     c-0.1-0.3-0.2-0.7-0.2-0.7s-0.3,0.3-0.5,0.5c-0.2,0.2-0.3,0.4-0.4,0.7c-0.1,0.3-0.3,0.4-0.4,0.7c-0.1,0.2,0,0.7,0,0.9     c0,0.2,0,0.4,0,0.5c-0.2,0.3-0.4,0.6-0.5,0.9c-0.3,0.2-0.8,0.5-1.1,0.8c-0.1-0.3-0.4-1.1-0.4-1.1c0,0.3-0.6,1.2-0.7,1.4     c0,0.2-0.1,0.5-0.1,0.8c0,0.4,0,0.7,0.3,0.9c0.2,0.2,0.2,0.6,0.3,0.8c-0.2,0.6-0.3,1.4-0.4,2.2c0-0.1,0-0.2-0.1-0.3     c-0.1-0.4-0.4-0.5-0.4-0.7c0-0.2-0.3-0.2-0.5-0.7c-0.2-0.2-0.4-0.6-0.4-0.6s-0.3,0.6-0.5,1.1c0,0.1-0.1,0.2-0.1,0.4     c0,0-0.1-0.1-0.2-0.2c-0.2-0.2-0.6-0.4-0.6-0.4c-0.1,0.2-0.1,1.1-0.2,1.4c0,0.2,0.2,0.8,0.2,1c0.1,0.2,0.2,0.4,0.4,0.8     c0.2,0.4,1.6,0.8,1.7,1.1c0,0,0.2,0.2,0.3,0.3c0,0.1,0,0.2,0,0.4c0,0.7,0.1,1.6,0.3,2.4c0-0.1-0.1-0.1-0.1-0.2     c-0.1-0.2-0.1-0.2-0.2-0.7c-0.2-0.5-0.5-0.5-0.6-0.7c-0.1-0.2-0.6-0.4-0.8-0.5c-0.2-0.1-0.4-0.7-0.4-0.7s0,0.9,0,1.4     c0,0.2,0,0.4,0.1,0.6c-0.2,0-0.3-0.1-0.4-0.2c-0.2-0.2-0.7-0.3-0.7-0.3c0,0.2,0.2,1.2,0.3,1.4c0,0.3,0.4,0.8,0.5,0.9     c0.1,0.2,0.3,0.4,0.6,0.7c0.3,0.3,1.1,0.4,2,0.7c0.3,0.1,0.5,0.3,0.6,0.5c0,0.1,0.1,0.2,0.1,0.3c0.1,0.4,0.2,0.8,0.4,1.4     c-0.2-0.3-0.7-0.4-1.2-0.5c-0.3,0-1.5-0.4-1.5-0.4c0.3,0.2,0.5,0.8,0.6,1.3c-0.7-0.2-1.4,0-1.4,0c0.1,0.1,1.1,0.9,1.2,1.3     c0.2,0.4,0.6,1.3,0.8,1.3c0.2,0.1,0.5,0.6,0.8,0.8c0.3,0.3,1.3,0.1,1.7,0.1c0.2,0,0.6,0.2,0.8,0.2c0.2,0.3,0.6,0.7,1.1,1.2     c-0.3-0.1-0.8-0.4-1-0.6c-0.2-0.2,0,0.8,0.2,1.1c-0.3,0-0.6-0.1-0.8-0.2c-0.3-0.2,0,0.8,0.3,1.1c0.7,0.6,0.6,0.7,0.7,0.8     c-0.6,0.1-1.4,0.3-1.7,0.2c-0.3-0.2,0.4,0.4,0.8,0.6c0.6,0.2,0.5,0.6,1.2,0.8c0.7,0.2,1.4,0.5,1.8,0.4c0.3-0.1,0.5-0.2,1-0.2     c0.4,0,1.1-0.6,1.8-0.6c0.7,0.4,1.5,0.8,2.2,1.2c0,0,0.1,0,0.1,0c-0.1,0-0.2,0-0.2,0c-0.3,0.1-1.4,0.3-1.7,0.2     c-0.2-0.1,0.3,0.6,0.6,0.8c-0.5,0.1-1.3,0.2-1.5,0.1c-0.4-0.1,0.7,1,1.1,1.1h0c-0.4,0.1-0.6,0.2-0.8,0.2c-0.4,0,1.2,1,1.6,0.9     c1.4-0.2,2.7,0.3,3.3,0c0.6-0.2,0.9-0.4,1.2-0.4c0.3-0.1,0.4-0.4,0.6-0.5c0.1-0.1,0.2-0.3,0.7-0.5c0,0,0,0,0,0s0.9,0.1,1.5,0     c-0.2,0.1-0.4,0.2-0.6,0.4c-0.7,0.2-1.3,0.4-1.5,0.5c-0.5,0.3-1.9,1.5-2.3,1.9c0,0,1.2-0.1,1.3-0.1s0.6-0.8,0.8-0.9     c0,0,0.4-0.2,0.8-0.4c-0.8,1.3,0.4,2.3,0.4,2.3c-0.3-0.4,0-1,0-1l0.6,0.4c-0.8-1.4,0.4-2.3,0.8-2.5c0,0,0.1,0,0.1,0     c0.1,0.2,0.3,0.3,0.5,0.3c0.2,0,0.4-0.1,0.5-0.2c0.1,0,0.2,0.1,0.2,0.1c0.5,0.3,1.5,1.2,0.7,2.5l0.6-0.4c0,0,0.4,0.6,0,1     c0,0,1.1-1,0.4-2.3c0.4,0.2,0.6,0.3,0.7,0.4c0.2,0.2,0.6,0.9,0.8,0.9c0.2,0,1.3,0.1,1.3,0.1c-0.4-0.4-1.7-1.6-2.3-1.9     c-0.2-0.1-0.7-0.2-1.3-0.5c-0.2-0.2-0.4-0.3-0.6-0.4c0.6,0,1.5,0,1.5,0s0,0,0,0c0.4,0.2,0.5,0.4,0.6,0.5c0.2,0.1,0.3,0.4,0.6,0.5     s0.6,0.2,1.2,0.4c0.6,0.2,1.9-0.2,3.3,0c0.4,0.1,2-1,1.6-0.9c-0.2,0-0.5-0.1-0.8-0.2h0c0.4-0.1,1.5-1.2,1.1-1.1     c-0.2,0.1-1,0-1.5-0.1c0.3-0.3,0.8-1,0.6-0.8c-0.3,0.1-1.4-0.1-1.7-0.2c-0.1,0-0.2,0-0.2,0c0,0,0.1,0,0.1,0     c0.7-0.4,1.5-0.8,2.2-1.2c0.8,0.1,1.4,0.6,1.8,0.6c0.4,0,0.7,0.2,1,0.2c0.4,0.1,1.1-0.2,1.8-0.4c0.6-0.2,0.6-0.6,1.2-0.8     c0.4-0.2,1.1-0.8,0.8-0.6c-0.2,0.2-1.1,0-1.7-0.2c0.1,0,0-0.1,0.7-0.8c0.3-0.3,0.6-1.3,0.3-1.1c-0.2,0.1-0.5,0.2-0.8,0.2     c0.2-0.3,0.4-1.4,0.2-1.1c-0.2,0.2-0.7,0.5-1,0.6c0.5-0.5,0.9-0.9,1.1-1.2c0.2-0.1,0.6-0.2,0.8-0.2c0.4,0,1.4,0.2,1.7-0.1     c0.3-0.3,0.7-0.8,0.8-0.8c0.1-0.1,0.6-0.9,0.8-1.3c0.1-0.4,1.1-1.3,1.2-1.3c0,0-0.7-0.2-1.4,0c0.2-0.5,0.4-1.1,0.6-1.3     c0,0-1.2,0.3-1.5,0.4c-0.5,0.1-0.9,0.2-1.2,0.5c0.2-0.5,0.3-1,0.4-1.4c0-0.1,0-0.2,0.1-0.3c0.1-0.2,0.3-0.4,0.6-0.5     c0.9-0.3,1.7-0.4,2-0.7c0.3-0.3,0.5-0.5,0.6-0.7c0.2-0.1,0.5-0.7,0.5-0.9C83.6,61.8,83.9,60.9,83.9,60.7z M80.6,59.8     c0,0.4-0.1,1-0.3,1.8c0-0.3-0.1-0.5-0.2-0.7c-0.1-0.3-0.3-0.3-0.4-0.5c-0.1-0.3-0.4-0.4-0.6-0.6c-0.2-0.2-0.5-0.5-0.5-0.5     c-0.1,0.3-0.2,1.5-0.1,1.7c0,0,0,0.2,0.1,0.3c-0.1,0-0.2-0.1-0.2-0.1c-0.2,0.5,0,1.1,0.1,1.6c0,0.2,0.2,0.4,0.3,0.6     c0.1,0.2,0,0.4,0.2,0.5c0.1,0.1,0.3,0.1,0.5,0.3c0,0.3,0,0.6,0.1,0.7c-0.2,0.6-0.4,1.2-0.6,1.7c0-0.2-0.1-0.4-0.2-0.6     c-0.2-0.4-0.3-0.3-0.4-0.7c-0.2-0.5-0.5-0.5-0.6-1c0,0-0.1,0.6-0.2,1.1c0,0.5,0,0.7,0.1,0.9c0,0.2,0,0.4-0.1,0.6     c0-0.2-0.1-0.6-0.2-0.8c-0.2-0.2-0.1-0.5-0.1-0.5c-0.1,0.2-0.5,0.7-0.7,0.9l-0.2-0.3c2.3-4.1,1.8-11.1,1.7-12.1     c0.4-0.1,0.3-0.3,0.3-0.3l-0.1-0.4c0,0,0.1,0,0.1,0s0,0,0.1,0s0.1,0,0.2,0c0.1,0,0.1-0.1,0.1-0.2l0,0c0.2,0.2,0.3,0.4,0.5,0.4     c0.3,0.1,0.6,0.2,0.6,0.4l0,0c0.2,0.8,0.4,1.7,0.4,2.5l0,0c-0.4-0.4-0.4-1.2-1.3-1.6c0,0,0,0.3,0,0.5c0,0.1-0.1,0.4-0.1,0.7     c-0.3-0.2-0.6-0.5-0.6-0.6c0,0-0.1,1.1,0.2,1.7c0.3,0.6,0.3,0.9,0.7,1c0.4,0.2,0.4,0.2,0.5,0.3c0.2,0.1,0.4,0.2,0.5,0.2     c0,0,0.1,0,0.1,0.1c0,0.1,0,0.2,0.1,0.3C80.7,59.4,80.6,59.6,80.6,59.8z M49.4,55l2.4,1.7c0,0.4,0,1.6,0.3,2.6l-2,3.3     C49.8,61.9,49,59.6,49.4,55z M45.7,53c0,0,0.2-0.3,0.4-0.3c0,0.2-0.2,0.5-0.2,0.5c0,0-0.1,0.1-0.1,0.1s-0.1,0-0.1,0     c0,0,0-0.1,0-0.1C45.7,53.1,45.7,53.1,45.7,53z M53.5,47.5l1.9,2.1c0,0.6-0.1,2.4,0.4,3.5L54.1,56C53.7,55.1,52.8,52.7,53.5,47.5     z M61,46.2c0.8-0.2,1.7-0.2,2.5,0l0.3,0.4c-1-0.2-2.1-0.2-3.1,0L61,46.2z M61.2,45.8l1.1-1.8l1.1,1.7     C62.6,45.7,61.9,45.7,61.2,45.8z M60.4,47c1.2-0.3,2.4-0.3,3.6,0l0.3,0.5c-0.6-0.2-1.3-0.3-2.1-0.3s-1.4,0.1-2.1,0.4L60.4,47z      M59.9,48c1.5-0.6,3.2-0.6,4.7,0l7.3,12.2h-2.7C69.1,60,69,60,68.8,59.9c0,0-0.1-0.1-0.1-0.1c-0.2-0.1-0.4-0.2-0.6-0.1     c-0.1,0-0.2,0.1-0.3,0.1c-0.1,0-0.2,0.1-0.3,0.2c0,0,0,0,0,0c0,0-0.1,0-0.1,0c-0.2-0.1-0.4-0.2-0.6-0.4c-0.1,0-0.1-0.1-0.2-0.2     c-0.1-0.1-0.2-0.1-0.4-0.1c-0.1,0-0.2,0-0.3,0c-0.1,0-0.2,0.1-0.4,0.2c-0.1,0-0.2,0.1-0.2,0.2c0,0,0,0,0,0l0,0     c-0.1-0.1-0.3-0.2-0.4-0.2c-0.1,0-0.2-0.1-0.4-0.2c-0.2-0.1-0.3-0.2-0.5-0.4c0,0-0.1-0.1-0.2-0.1c-0.1-0.1-0.3-0.1-0.4-0.1     c-0.1,0-0.2,0-0.3,0c-0.1,0-0.3,0.1-0.4,0.2c-0.1,0-0.1,0.1-0.2,0.1v-4.2c0.4,0,0.8-0.2,0.8-0.4c0-0.2-0.3-1.5-0.8-1.8     c0,0-0.4-0.3-0.9,0c0,0-0.6,0.3-0.3,0.8c0,0,0,0.1,0.3,0c0,0,0.2-0.1,0.2-0.2v0.1c0,0.2-0.2,0.2-0.2,0.2     c-0.1,0.4-0.2,0.8-0.2,0.8c0,0.2,0.4,0.4,0.8,0.4V59c0,0,0,0,0,0c-0.2-0.1-0.4-0.2-0.5-0.4c-0.1,0-0.1-0.1-0.2-0.1     c-0.1-0.1-0.3-0.1-0.4-0.1c-0.1,0-0.2,0-0.4,0c-0.2,0-0.3,0.1-0.4,0.2s-0.2,0.2-0.4,0.2c0,0,0,0,0,0h0c0,0-0.1-0.1-0.2-0.1     c-0.1,0-0.2-0.1-0.2-0.1c-0.1,0-0.2-0.1-0.3-0.2c-0.3-0.2-0.6-0.4-0.8-0.6c0,0,0,0-0.1,0c-0.2-0.2-0.4-0.2-0.7-0.3c0,0,0,0,0,0     c0,0-0.1,0-0.1,0h0c-0.2,0-0.3,0-0.5,0.1c-0.2,0.1-0.3,0.2-0.5,0.3s-0.3,0.2-0.5,0.4c-0.2,0.2-0.4,0.4-0.6,0.6     c-0.2,0.2-0.3,0.4-0.5,0.6c0,0,0,0,0,0c-0.1,0.1-0.2,0.2-0.3,0.4c-0.1,0.1-0.2,0.1-0.2,0.2h-1.5L59.9,48z M70.3,56l-1.7-2.9     c0.5-1.1,0.4-2.9,0.4-3.5l1.9-2.1C71.6,52.7,70.7,55.1,70.3,56z M78.3,52.7c0.2,0,0.4,0.3,0.4,0.3c0,0,0,0.1,0,0.2     c0,0,0,0.1,0,0.1c0,0-0.1,0-0.1,0c0,0-0.1,0-0.1-0.1C78.5,53.2,78.3,52.9,78.3,52.7z M74.3,62.6l-2-3.3c0.4-1.1,0.4-2.2,0.3-2.6     L75,55C75.5,59.6,74.6,61.9,74.3,62.6z M48.7,66.6l1.9-3.1c7.5,0,15.1,0,22.6,0c0,0,0,0,0,0c0,0-0.1,0-0.1-0.1     c-0.1-0.1-0.2-0.2-0.4-0.3c-0.2-0.2-0.4-0.4-0.6-0.6c-0.3-0.3-0.6-0.6-0.8-0.8c-0.2-0.2-0.4-0.4-0.5-0.6     c-0.1-0.1-0.2-0.2-0.2-0.2c-0.2-0.2-0.3-0.3-0.5-0.4c-0.1,0-0.2-0.1-0.2-0.1H72l3.7,6.2L48.7,66.6L48.7,66.6z M52.5,60.3h1.4     c-0.3,0.2-0.5,0.4-0.8,0.6c0,0,0,0-0.1,0c-0.2,0.1-0.3,0.2-0.4,0.3c-0.2,0.2-0.4,0.4-0.7,0.6c-0.2,0.2-0.4,0.4-0.6,0.6L52.5,60.3     z M62.2,59.5c0,0,0.1,0,0.2,0.1c0.1,0,0.1,0,0.2,0.1c0.2,0.1,0.3,0.2,0.4,0.3c0.2,0.2,0.4,0.4,0.6,0.6c0.3,0.4,0.6,0.7,0.9,1     c0.1,0.1,0.3,0.3,0.4,0.4c0.3,0.3,0.7,0.7,1.1,1c0,0,0,0,0.1,0l0,0l0,0h0c-0.6,0-1.1,0-1.7,0l0,0c0,0,0,0,0,0c0,0-0.1,0-0.1-0.1     c-0.2-0.2-0.5-0.4-0.7-0.6c-0.3-0.2-0.5-0.5-0.8-0.7c-0.6-0.6-1.1-1.1-1.6-1.7c-0.1-0.1-0.2-0.2-0.3-0.3     c-0.2-0.2-0.4-0.4-0.6-0.6c0,0,0,0,0,0l0,0c0.1-0.1,0.2-0.2,0.4-0.2c0.1,0,0.2,0,0.2,0c0.1,0,0.3,0,0.4,0.1c0,0,0.1,0.1,0.2,0.1     c0.1,0.1,0.3,0.2,0.4,0.3C61.8,59.3,62,59.4,62.2,59.5z M69.3,60.7C69.3,60.7,69.3,60.7,69.3,60.7c0.2,0.1,0.2,0.1,0.3,0.1     c0.2,0.1,0.3,0.2,0.4,0.4c0.1,0.1,0.2,0.2,0.2,0.3c0.2,0.2,0.3,0.4,0.5,0.6c0.2,0.2,0.3,0.3,0.5,0.5c0.2,0.2,0.4,0.4,0.6,0.6     c0,0,0,0,0,0l0,0c0,0,0,0,0,0c-0.3,0-0.6,0-0.9,0l0,0c0,0,0,0-0.1,0c-0.2-0.2-0.4-0.3-0.5-0.5c-0.2-0.2-0.3-0.3-0.5-0.5     c-0.4-0.4-0.7-0.7-1.1-1.1c-0.1-0.1-0.2-0.2-0.2-0.2c-0.2-0.2-0.4-0.3-0.6-0.5c0,0,0,0,0,0l0,0c0.1,0,0.2-0.1,0.3-0.1     c0.1,0,0.2,0,0.3,0c0,0,0.1,0,0.1,0.1C68.8,60.4,69,60.5,69.3,60.7z M68,60.8c0.1,0.1,0.2,0.2,0.4,0.4c0.2,0.3,0.5,0.6,0.8,0.8     c0.2,0.2,0.5,0.5,0.7,0.7c0.1,0.1,0.2,0.2,0.3,0.3c0,0,0,0,0,0l0,0c0,0,0,0,0,0c-0.4,0-0.9,0-1.3,0l0,0h0     c-0.1-0.1-0.2-0.2-0.3-0.2c-0.2-0.2-0.5-0.4-0.8-0.7c-0.2-0.1-0.3-0.3-0.4-0.4c-0.4-0.4-0.7-0.7-1.1-1.1     c-0.1-0.1-0.2-0.2-0.2-0.2c-0.1-0.1-0.2-0.2-0.4-0.4l0,0l0,0l0,0c0.1-0.1,0.2-0.1,0.3-0.2c0.1,0,0.1,0,0.2,0c0.1,0,0.2,0,0.2,0     c0,0,0.1,0,0.1,0.1c0.2,0.2,0.4,0.3,0.7,0.4c0.1,0,0.1,0.1,0.2,0.1c0.1,0,0.1,0,0.2,0.1C67.7,60.6,67.8,60.7,68,60.8z M65.8,60.8     c0.2,0.2,0.4,0.4,0.6,0.6c0.2,0.2,0.4,0.4,0.6,0.6c0.3,0.3,0.6,0.6,1,0.9c0,0,0,0,0.1,0.1l0,0l0,0c0,0,0,0,0,0     c-0.4,0-0.8,0-1.2,0l0,0c0,0,0,0,0,0c-0.1-0.1-0.2-0.2-0.3-0.2c-0.3-0.2-0.6-0.5-0.8-0.8c-0.2-0.2-0.3-0.3-0.4-0.4     c-0.4-0.4-0.8-0.8-1.1-1.2c-0.1-0.1-0.2-0.2-0.2-0.3c-0.2-0.2-0.4-0.4-0.7-0.6c-0.1-0.1-0.2-0.2-0.4-0.2c0,0,0,0,0,0l0,0     c0.1-0.1,0.2-0.1,0.4-0.2c0.1,0,0.1,0,0.2,0c0.1,0,0.2,0,0.2,0.1c0,0,0.1,0.1,0.2,0.1c0.3,0.2,0.6,0.4,0.9,0.6c0,0,0.1,0,0.1,0     c0.1,0,0.2,0.1,0.2,0.1c0.2,0.1,0.3,0.2,0.5,0.3C65.5,60.4,65.7,60.6,65.8,60.8z M60.3,59.7c0.1,0.1,0.2,0.2,0.4,0.4     c0.1,0.2,0.2,0.3,0.4,0.4c0.2,0.2,0.4,0.5,0.7,0.7c0.4,0.4,0.8,0.8,1.3,1.3c0.2,0.2,0.4,0.3,0.5,0.4c0,0,0,0,0,0l0,0     c-4.1,0-8.2,0-12.3,0c0,0,0,0,0,0c0,0,0.1-0.1,0.2-0.2c0.2-0.2,0.4-0.4,0.6-0.5c0.2-0.2,0.5-0.4,0.7-0.6c0.2-0.1,0.3-0.2,0.5-0.3     c0,0,0.1,0,0.1-0.1c0.4-0.3,0.8-0.6,1.1-0.9c0.2-0.2,0.4-0.4,0.6-0.6l0,0c0.2-0.2,0.3-0.4,0.5-0.6c0.1-0.2,0.3-0.3,0.4-0.5     c0.2-0.2,0.3-0.3,0.5-0.4c0.1-0.1,0.2-0.2,0.4-0.2c0.1,0,0.2-0.1,0.3-0.1c0.2,0,0.3,0,0.5,0.1c0.1,0,0.1,0.1,0.2,0.1     c0.1,0.1,0.3,0.2,0.4,0.3c0.2,0.1,0.4,0.2,0.5,0.3c0.1,0,0.2,0.1,0.3,0.1c0.1,0,0.1,0,0.2,0.1c0.2,0.1,0.3,0.2,0.5,0.3     C60,59.4,60.2,59.6,60.3,59.7z M57.5,67.4c0.7,0.5,1.4,0.8,2,1c-0.5,0.2-3.6,1-6.2-1H57.5z M61.7,69.9c0,0,0.3-1.5,0.5-2.5l0,0     c0.2,1,0.5,2.5,0.5,2.5c0.2,0.8-0.4,1.4-0.5,1.5C62.2,71.3,61.6,70.7,61.7,69.9z M66.9,67.4h4.2c-2.7,1.9-5.8,1.1-6.2,1     C65.5,68.2,66.2,67.9,66.9,67.4z M77.7,52.2c0,0,0-0.1,0-0.2c0,0,0,0,0-0.1l0,0c0.2,0.1,0.3,0.2,0.4,0.4c0,0,0,0.1,0,0.2     C77.9,52.5,77.7,52.2,77.7,52.2z M74.4,44.7c0,0.1-0.2,0-0.2,0c0,0-0.2-0.2-0.2-0.4c0,0,0,0,0,0c0.2,0,0.4,0.2,0.4,0.2     C74.4,44.5,74.5,44.7,74.4,44.7z M74.1,43.5l0.5-0.2l0,0l0,0l-0.1,0.5l-0.4,0l0,0l0,0V43.5z M73.2,43.6c0,0,0.1,0,0.1,0     s0.1,0,0.2,0.1c0,0,0.2,0.2,0.2,0.4c0,0,0,0-0.1,0c-0.2,0-0.4-0.2-0.4-0.2C73.1,43.8,73.1,43.7,73.2,43.6z M62.8,37.8     C62.9,37.8,62.9,37.8,62.8,37.8c0.2,0,0.2,0.1,0.2,0.2s-0.1,0.2-0.2,0.2c0,0-0.3,0-0.5-0.2C62.5,37.8,62.7,37.8,62.8,37.8z      M62.2,36.9L62.2,36.9L62.2,36.9l0.2,0.4l-0.2,0.3l0,0l0,0L62,37.4L62.2,36.9z M61.6,38.2L61.6,38.2c-0.1,0-0.1,0-0.2-0.1     c0,0,0,0,0-0.1c0,0,0-0.1,0-0.1c0,0,0.1-0.1,0.2-0.1c0,0,0.3,0,0.5,0.2C61.9,38.2,61.6,38.2,61.6,38.2z M62.1,41.1     c0,0,0.3-0.5,0.5-1.2c0.2,1.5,0,2.5-0.2,2.9l-0.2-0.4l-0.8,1.3C61.4,43.2,61.5,42.2,62.1,41.1z M51,43.6c0,0,0.1-0.1,0.2-0.1     s0.1,0,0.1,0c0,0,0,0.1,0,0.1c0,0,0,0.1-0.1,0.2c0,0-0.2,0.2-0.4,0.2c0,0,0,0,0,0C50.8,43.8,51,43.6,51,43.6z M49.9,43.3     L49.9,43.3L49.9,43.3l0.5,0.2v0.4l0,0l0,0l-0.4,0L49.9,43.3z M50.1,44.8C50.1,44.8,50.1,44.8,50.1,44.8C50,44.7,50,44.7,50,44.7     c0,0,0-0.1,0.1-0.2c0,0,0.2-0.2,0.4-0.2h0c0,0.2-0.2,0.4-0.2,0.4C50.3,44.7,50.2,44.8,50.1,44.8z M46.7,52.2c0,0-0.2,0.3-0.4,0.3     c0,0,0-0.1,0-0.2c0.1-0.2,0.2-0.3,0.4-0.4c0,0,0,0,0,0c0,0,0,0,0,0.1C46.7,52.1,46.7,52.1,46.7,52.2z M43.8,59.1     c0-0.1,0-0.2,0.1-0.3c0,0,0.1-0.1,0.1-0.1c0.2,0,0.4-0.1,0.5-0.2c0.1-0.1,0.2-0.2,0.5-0.3c0.4-0.1,0.4-0.4,0.7-1     c0.3-0.6,0.2-1.7,0.2-1.7c0,0.1-0.3,0.4-0.6,0.6c0-0.2,0-0.6-0.1-0.7c0-0.2,0-0.5,0-0.5c-0.8,0.4-0.9,1.2-1.3,1.6l0,0     c0.1-0.8,0.2-1.7,0.4-2.5l0,0c0-0.1,0.3-0.3,0.6-0.4c0.1,0,0.3-0.2,0.5-0.4l0,0c0,0.1,0,0.2,0.1,0.2c0,0,0.1,0,0.2,0     c0,0,0,0,0.1,0c0,0,0.1,0,0.1,0l-0.1,0.4c0,0-0.1,0.2,0.3,0.3c-0.1,1-0.6,8,1.7,12.1l-0.2,0.3c-0.2-0.2-0.6-0.7-0.7-0.9     c0,0,0,0.4-0.1,0.5c-0.1,0.2-0.2,0.5-0.2,0.8c0-0.2-0.1-0.4-0.1-0.6c0-0.3,0.1-0.4,0.1-0.9c0-0.5-0.2-1.1-0.2-1.1     c0,0.5-0.4,0.5-0.6,1C46,65.7,46,65.7,45.7,66c-0.1,0.2-0.2,0.4-0.2,0.6c-0.2-0.6-0.4-1.2-0.6-1.7c0-0.1,0.1-0.4,0.1-0.7     c0.2-0.2,0.4-0.2,0.5-0.3c0.1-0.2,0-0.3,0.2-0.5c0.1-0.2,0.3-0.5,0.3-0.6c0.1-0.5,0.4-1.1,0.1-1.6c0,0-0.1,0-0.2,0.1     c0-0.1,0-0.2,0.1-0.3c0.1-0.2,0-1.4-0.1-1.7c0,0-0.4,0.3-0.5,0.5c-0.2,0.2-0.5,0.3-0.6,0.6c-0.1,0.3-0.3,0.3-0.4,0.5     c-0.1,0.2-0.2,0.4-0.2,0.7c-0.2-0.8-0.3-1.5-0.3-1.8C43.8,59.6,43.8,59.4,43.8,59.1z M64,77.7c-0.6,0-1,0.2-1.2,0.3v0     c0.2-0.3,1-1.7,1.6-2.3C64.5,75.9,64.8,76.8,64,77.7z M61.7,78c-0.2-0.1-0.6-0.3-1.2-0.3c-0.8-0.9-0.5-1.9-0.4-2.1     C60.6,76.3,61.5,77.7,61.7,78L61.7,78z M75.4,72.3c0,0,0-0.1,0-0.1c0-0.2,0.2-0.6,0.2-0.8c0-0.2-0.1-0.8-0.3-1.1     c-0.1-0.3-0.4-1.1-0.8-1.2c0,0-0.2,0.8-0.4,1.2c-0.1,0.3-0.2,0.7-0.3,0.8c0,0-0.1,0.2-0.2,0.3c0-0.1,0-0.1,0-0.6     c0-0.6-0.9-1.5-0.9-1.5c0.1,0.2-0.3,1.3-0.4,1.5c-0.2,0.2-0.4,0.9-0.5,1.3c0,0.4-0.2,0.7-0.4,0.8c-0.3,0.4,0,1.9,0.1,2.1     c-0.6,0.4-1.2,0.7-1.8,1c-0.2,0.1-0.4,0.2-0.6,0.3c0,0,0.1-0.1,0.1-0.1c0.8-0.9,0.8-1.2,0.9-1.4c0.3,0-0.4-0.1-0.8-0.1     c0.2-0.3,0.5-0.8,0.7-1.2c0.2-0.3-1.5,0.1-1.5,0.1c-0.2,0.1-0.3,0.1-0.4,0.2c0.1-0.5,0.3-1,0.2-1.1c0-0.1-0.7,0.1-1.2,0.3     c-0.4,0.2-0.7,0.6-1.1,0.8c-0.5,0.3-0.5,1.1-0.8,1.5c-0.2,0.2-0.2,0.4-0.3,0.6c0-0.4-0.2-0.5-0.3-0.6l0,0l0,0c0,0,0,0,0,0     s-0.1,0-0.1,0c-0.1,0-0.3,0-0.5-0.1c-0.4,0-0.9,0-1.2,0.5c-0.2,0.5-0.5,1.6-0.6,1.9c-0.1,0-0.1,0-0.2,0c-0.1,0-0.2,0-0.2,0     c-0.1-0.3-0.3-1.4-0.6-1.9c-0.3-0.5-0.8-0.5-1.2-0.5c-0.3,0-0.4,0-0.5,0.1c0,0,0,0-0.1,0c0,0,0,0,0,0l0,0l0,0     c-0.2,0.1-0.3,0.3-0.3,0.8c0-0.2-0.1-0.4-0.3-0.8c-0.2-0.4-0.3-1.1-0.8-1.5c-0.4-0.2-0.7-0.6-1.1-0.8c-0.5-0.2-1.2-0.4-1.2-0.3     c0,0.1,0.1,0.6,0.2,1.1c-0.1,0-0.2-0.1-0.4-0.2c0,0-1.6-0.4-1.5-0.1c0.2,0.4,0.5,0.8,0.7,1.2c-0.4,0-1.1,0-0.8,0.1     c0.1,0.2,0.1,0.5,0.9,1.4c0,0,0.1,0.1,0.1,0.1c-0.2-0.1-0.4-0.2-0.6-0.3c-0.6-0.3-1.2-0.6-1.8-1c0-0.2,0.3-1.7,0.1-2.1     c-0.2-0.2-0.3-0.4-0.4-0.8c0-0.4-0.3-1.1-0.5-1.3c-0.2-0.2-0.5-1.3-0.4-1.5c0,0-0.9,0.9-0.9,1.5c0,0.5,0,0.5,0,0.6     c-0.1-0.2-0.2-0.3-0.2-0.3c-0.2-0.2-0.2-0.5-0.3-0.8s-0.4-1.2-0.4-1.2c-0.3,0.2-0.6,0.9-0.8,1.2c-0.2,0.3-0.2,0.8-0.3,1.1     c0,0.2,0.2,0.6,0.2,0.8c0,0,0,0.1,0,0.1c-0.6-0.5-1.2-1-1.8-1.8c0-0.2,0.1-0.4,0.2-0.5c0.1-0.2,0.6-0.7,0.7-1.1     c0.1-0.4,0-0.6,0-0.8c0-0.2,0.1-0.8,0.1-0.8v0h0.8c1.3,1,6.1,4,11.8,1.5c0,0.1-0.1,0.2-0.1,0.2c0,0-1.2,1.7,1.5,2.2l0,0l0,0l0,0     l0,0c2.7-0.6,1.5-2.2,1.5-2.2c0,0,0-0.1-0.1-0.2c5.7,2.5,10.5-0.6,11.8-1.5h0.8c0,0,0,0,0,0s0.1,0.6,0.1,0.8c0,0.2-0.1,0.4,0,0.8     c0.1,0.4,0.5,0.9,0.7,1.1c0.1,0.1,0.2,0.2,0.2,0.5C76.7,71.4,76.1,71.8,75.4,72.3z"/>
			<path class="st0" d="M71.1,73.9c-0.2,0-0.3,0.1-0.3,0.2c0,0.2,0.1,0.3,0.3,0.3c0.2,0,0.3-0.1,0.3-0.3     C71.3,74,71.2,73.9,71.1,73.9z"/>
			<path class="st0" d="M72.6,75.8c-0.2,0-0.3,0.1-0.3,0.3s0.1,0.3,0.3,0.3c0.2,0,0.3-0.1,0.3-0.3S72.7,75.8,72.6,75.8z"/>
			<path class="st0" d="M76.1,69.9c-0.2,0-0.3,0.1-0.3,0.3s0.1,0.3,0.3,0.3c0.2,0,0.3-0.1,0.3-0.3S76.3,69.9,76.1,69.9z"/>
			<path class="st0" d="M78,71.2c0,0.2,0.2,0.3,0.3,0.3c0.2,0,0.3-0.1,0.3-0.3c0-0.2-0.1-0.3-0.3-0.3C78.1,70.9,78,71,78,71.2z"/>
			<path class="st0" d="M78.7,64.9c0.2,0,0.3-0.1,0.3-0.3c0-0.2-0.1-0.3-0.3-0.3s-0.3,0.2-0.3,0.3C78.4,64.7,78.5,64.9,78.7,64.9z"/>
			<path class="st0" d="M79.6,58.9c-0.2,0-0.3,0.1-0.3,0.3s0.1,0.3,0.3,0.3c0.2,0,0.3-0.2,0.3-0.3C79.9,59,79.8,58.9,79.6,58.9z"/>
			<path class="st0" d="M81.2,54.1c0.2,0,0.3-0.1,0.3-0.3c0-0.2-0.1-0.3-0.3-0.3c-0.2,0-0.3,0.1-0.3,0.3S81.1,54.1,81.2,54.1z"/>
			<path class="st0" d="M79.1,54.6c0.2,0,0.3-0.1,0.3-0.3c0-0.2-0.1-0.3-0.3-0.3c-0.2,0-0.3,0.2-0.3,0.3S79,54.6,79.1,54.6z"/>
			<path class="st0" d="M77.4,49.8c0-0.2-0.1-0.3-0.3-0.3s-0.3,0.1-0.3,0.3c0,0.2,0.2,0.3,0.3,0.3C77.2,50.1,77.4,50,77.4,49.8z"/>
			<path class="st0" d="M78.7,48.9c0.2,0,0.3-0.1,0.3-0.3c0-0.2-0.1-0.3-0.3-0.3c-0.2,0-0.3,0.2-0.3,0.3     C78.4,48.7,78.5,48.9,78.7,48.9z"/>
			<path class="st0" d="M81.6,59.3c0,0.2,0.1,0.3,0.3,0.3s0.3-0.1,0.3-0.3c0-0.2-0.1-0.3-0.3-0.3C81.8,59,81.6,59.1,81.6,59.3z"/>
			<path class="st0" d="M53.4,73.9c-0.2,0-0.3,0.1-0.3,0.2c0,0.2,0.1,0.3,0.3,0.3s0.3-0.1,0.3-0.3C53.7,74,53.5,73.9,53.4,73.9z"/>
			<path class="st0" d="M52.2,76c0-0.2-0.1-0.3-0.3-0.3c-0.2,0-0.3,0.1-0.3,0.3c0,0.2,0.1,0.3,0.3,0.3C52,76.3,52.2,76.2,52.2,76z"/>
			<path class="st0" d="M48.3,69.9c-0.2,0-0.3,0.1-0.3,0.3s0.1,0.3,0.3,0.3s0.3-0.1,0.3-0.3S48.5,69.9,48.3,69.9z"/>
			<path class="st0" d="M46.1,71.5c0.2,0,0.3-0.1,0.3-0.3c0-0.2-0.2-0.3-0.3-0.3c-0.2,0-0.3,0.2-0.3,0.3     C45.9,71.4,46,71.5,46.1,71.5z"/>
			<path class="st0" d="M45.7,64.3c-0.2,0-0.3,0.2-0.3,0.3c0,0.2,0.1,0.3,0.3,0.3s0.3-0.1,0.3-0.3C46.1,64.4,45.9,64.3,45.7,64.3z"/>
			<path class="st0" d="M44.2,65.1c0-0.2-0.1-0.3-0.3-0.3c-0.2,0-0.3,0.1-0.3,0.3c0,0.2,0.2,0.3,0.3,0.3     C44.1,65.4,44.2,65.3,44.2,65.1z"/>
			<path class="st0" d="M44.9,59.5c0.2,0,0.3-0.2,0.3-0.3c0-0.2-0.1-0.3-0.3-0.3c-0.2,0-0.3,0.1-0.3,0.3     C44.6,59.4,44.7,59.5,44.9,59.5z"/>
			<path class="st0" d="M43.2,54.1c0.2,0,0.3-0.1,0.3-0.3c0-0.2-0.2-0.3-0.3-0.3c-0.2,0-0.3,0.1-0.3,0.3S43,54.1,43.2,54.1z"/>
			<path class="st0" d="M45.3,54c-0.2,0-0.3,0.2-0.3,0.3c0,0.2,0.1,0.3,0.3,0.3c0.2,0,0.3-0.1,0.3-0.3C45.6,54.2,45.5,54,45.3,54z"/>
			<path class="st0" d="M47.1,49.8c0,0.2,0.1,0.3,0.3,0.3s0.3-0.1,0.3-0.3c0-0.2-0.2-0.3-0.3-0.3C47.2,49.5,47.1,49.7,47.1,49.8z"/>
			<path class="st0" d="M45.8,48.9c0.2,0,0.3-0.1,0.3-0.3c0-0.2-0.1-0.3-0.3-0.3c-0.2,0-0.3,0.2-0.3,0.3     C45.5,48.7,45.6,48.9,45.8,48.9z"/>
			<path class="st0" d="M42.8,59.3c0-0.2-0.1-0.3-0.3-0.3c-0.2,0-0.3,0.1-0.3,0.3c0,0.2,0.1,0.3,0.3,0.3     C42.7,59.6,42.8,59.4,42.8,59.3z"/>
			<path class="st0" d="M58.7,55.1c0.1,0,0.2,0,0.2,0.1l0.1,0L58.9,55l0.5-0.2l0-0.1L58.7,55.1L58.7,55.1z"/>
			<path class="st0" d="M58.6,54.2h-0.1l0.1,0.4l0.4,0v-0.1c-0.1,0-0.1-0.1-0.1-0.1c0-0.1,0-0.2,0.1-0.2c0.1,0,0.2,0,0.2,0.1     c0,0.1,0,0.2-0.1,0.2l0,0.1c0.2-0.1,0.2-0.2,0.2-0.3c-0.1-0.2-0.2-0.2-0.3-0.2c-0.2,0-0.2,0.2-0.2,0.3c0,0.1,0,0.1,0.1,0.2h-0.2     L58.6,54.2z"/>
			<path class="st0" d="M58.6,53.5c0.2,0,0.2-0.1,0.2-0.2l0-0.2c0-0.1,0.1-0.2,0.2-0.2c0.1,0,0.1,0.2,0.1,0.2c0,0.1-0.1,0.2-0.2,0.2     v0.1c0.1,0,0.2,0,0.2-0.1c0,0,0.1-0.1,0.1-0.2c0-0.2,0-0.3-0.2-0.3c-0.1,0-0.2,0-0.2,0.2l-0.1,0.2c0,0,0,0.1-0.1,0.1     c-0.1,0-0.1-0.1-0.1-0.2c0-0.1,0-0.2,0.2-0.2v-0.1c-0.1,0-0.2,0-0.3,0.3C58.4,53.4,58.5,53.5,58.6,53.5z"/>
			<polygon class="st0" points="59.4,52.3 59.3,52.3 59.2,52.7 58.9,52.7 59.1,52.3 59,52.2 58.9,52.6 58.6,52.5 58.8,52.1      58.7,52.1 58.5,52.6 59.3,52.9    "/>
			<path class="st0" d="M59.6,52.1l-0.3-0.2l0.1-0.2c0.1-0.2,0-0.3-0.1-0.4c0,0-0.1,0-0.2,0c0,0-0.1,0-0.2,0.1l-0.2,0.3L59.6,52.1     L59.6,52.1z M58.9,51.7l0.1-0.2c0,0,0.1-0.1,0.1-0.1c0,0,0,0,0,0c0.1,0,0.1,0.1,0,0.2l-0.1,0.2L58.9,51.7z"/>
			<polygon class="st0" points="59.5,51 60,51.5 60.1,51.4 59.6,50.9 59.8,50.7 59.7,50.6 59.3,51.1 59.3,51.2    "/>
			<polygon class="st0" points="60.4,51.1 60,50.5 59.9,50.5 60.4,51.2    "/>
			<polygon class="st0" points="61.1,50.7 61.1,50.6 60.6,50.9 60.5,50.6 60.9,50.4 60.9,50.3 60.5,50.6 60.4,50.3 60.8,50.1      60.7,50 60.2,50.3 60.6,51    "/>
			<path class="st0" d="M61.3,50.7l-0.1-0.5c0,0,0-0.1,0-0.2l0.4,0.6l0.1,0l0.1-0.7c0,0.1,0,0.2,0,0.2l0.1,0.4l0,0H62l-0.2-0.8     l-0.2,0l-0.1,0.7l-0.4-0.6l-0.2,0L61.3,50.7L61.3,50.7z"/>
			<path class="st0" d="M62.4,50.5c0.2,0,0.3-0.1,0.3-0.2c0-0.2-0.1-0.2-0.1-0.2c0.1,0,0.1-0.1,0.1-0.2c0-0.1,0-0.2-0.2-0.2h-0.4     l0,0.8H62.4z M62.2,49.8h0.2c0.1,0,0.2,0,0.2,0.1s-0.1,0.1-0.2,0.1h-0.2L62.2,49.8z M62.4,50.2c0.1,0,0.2,0,0.2,0.1     c0,0.1-0.1,0.1-0.2,0.1h-0.2v-0.2L62.4,50.2z"/>
			<path class="st0" d="M62.1,49.7L62.1,49.7L62.1,49.7z"/>
			<path class="st0" d="M63,50.3l0.2,0.1c0.1,0,0.1,0.1,0.1,0.2c0,0,0,0.2,0,0.2l0.1,0l0,0c0,0,0,0,0-0.1v-0.1c0-0.1,0-0.2,0-0.2     c0,0,0.1,0,0.2-0.2c0-0.2-0.1-0.2-0.2-0.3L63,49.8l-0.2,0.8l0.1,0L63,50.3z M63.1,49.9l0.2,0.1c0,0,0.1,0,0.1,0.2     c0,0.1-0.1,0.1-0.2,0.1L63,50.2L63.1,49.9z"/>
			<polygon class="st0" points="64,51.1 64.1,51 63.7,50.8 63.8,50.6 64.2,50.8 64.2,50.7 63.8,50.5 64,50.3 64.4,50.5 64.4,50.4      63.9,50.1 63.5,50.8    "/>
			<path class="st0" d="M64.5,51.6c0.2,0.2,0.4,0.1,0.5,0c0.2-0.2,0.2-0.4,0.1-0.5l-0.2-0.2l-0.6,0.5L64.5,51.6z M65,51.2     c0.1,0.1,0.1,0.2-0.1,0.4c-0.2,0.1-0.3,0.1-0.4,0l-0.1-0.1l0.4-0.4L65,51.2z"/>
			<polygon class="st0" points="65.1,52.5 65.2,52.5 65,52 65.2,51.9 65.4,52.3 65.5,52.3 65.3,51.8 65.5,51.8 65.7,52.2 65.8,52.1      65.5,51.6 64.8,52    "/>
			<path class="st0" d="M65.8,53l-0.6,0.1v0.1l0.8-0.1V53c-0.1,0-0.2,0-0.2-0.2h-0.1L65.8,53z"/>
			<path class="st0" d="M65.8,53.5c-0.1,0-0.1,0-0.2,0.1c0-0.1-0.1-0.2-0.2-0.2c0,0-0.1,0-0.2,0.1c0,0.1-0.1,0.2-0.1,0.2     c0,0.2,0.1,0.3,0.2,0.3c0.1,0,0.2,0,0.2-0.1c0,0,0,0.1,0.2,0.1s0.2,0,0.2-0.2C66.1,53.5,65.9,53.5,65.8,53.5z M65.4,53.9     c-0.1,0-0.1-0.1-0.1-0.2c0-0.1,0.1-0.1,0.2-0.1c0.1,0,0.1,0,0.1,0.2C65.6,53.8,65.6,53.9,65.4,53.9z M65.8,53.9     c-0.1,0-0.1-0.1-0.1-0.2c0-0.1,0-0.1,0.1-0.1c0,0,0.1,0,0.1,0.1C65.9,53.8,65.9,53.9,65.8,53.9z"/>
			<path class="st0" d="M65.7,54.2v0.1c0,0,0.2,0,0.2,0.2c0,0.1-0.1,0.2-0.2,0.1c-0.1,0-0.1-0.1-0.2-0.2l0-0.1     c0-0.1-0.1-0.2-0.3-0.2l-0.1,0.5l0.1,0l0.1-0.4c0,0,0.1,0,0.1,0.2l0,0.1c0,0.2,0.1,0.2,0.2,0.3c0.2,0,0.2,0,0.3-0.2     C65.9,54.4,66,54.2,65.7,54.2z"/>
			<path class="st0" d="M65.6,54.9L65.5,55L65,54.8l0,0.1l0.7,0.3l0-0.1c-0.1-0.1-0.1-0.1,0-0.2L65.6,54.9z"/>
			<path class="st0" d="M61.2,57.7L61.2,57.7l0.7-2.4c0,0,0,0-0.1,0L61.2,57.7L61.2,57.7z"/>
			<path class="st0" d="M61.2,56.7L61.2,56.7l0.6-1.4c0,0,0,0-0.1,0L61.2,56.7L61.2,56.7z"/>
			<path class="st0" d="M60.3,57.6L60.3,57.6l1.2-2.4c0,0,0,0-0.1,0L60.3,57.6L60.3,57.6z"/>
			<path class="st0" d="M60.1,57.2l1.3-2.1c0,0,0,0-0.1,0L60.1,57.2L60.1,57.2z"/>
			<path class="st0" d="M59.3,57.2L59.3,57.2L59.3,57.2l1.8-2.2c0,0,0,0-0.1,0L59.3,57.2z"/>
			<path class="st0" d="M59.5,56.7l1.6-1.7l0,0c0,0,0,0-0.1,0L59.5,56.7L59.5,56.7z"/>
			<path class="st0" d="M60.9,54.8C60.9,54.8,60.9,54.8,60.9,54.8l-2.3,1.9l0,0.1L60.9,54.8L60.9,54.8z"/>
			<path class="st0" d="M60.8,54.6L60.8,54.6C60.8,54.6,60.7,54.6,60.8,54.6l-1.3,0.8l0,0l0,0.1L60.8,54.6z"/>
			<path class="st0" d="M60.7,54.5C60.7,54.4,60.6,54.4,60.7,54.5l-0.9,0.4l0,0.1L60.7,54.5z"/>
			<path class="st0" d="M59.6,54.6L59.6,54.6l0.9-0.3c0,0,0,0,0-0.1L59.6,54.6z"/>
			<polygon class="st0" points="59.6,54.4 59.6,54.5 60.5,54.2 60.5,54.2 60.5,54.1    "/>
			<path class="st0" d="M60.4,54C60.4,53.9,60.4,53.9,60.4,54l-1,0.1v0.1L60.4,54z"/>
			<path class="st0" d="M59.4,53.8L59.4,53.8l1,0c0,0,0,0,0-0.1L59.4,53.8z"/>
			<path class="st0" d="M59.4,53.6h1v0v0L59.4,53.6L59.4,53.6z"/>
			<path class="st0" d="M59.4,53.3l1,0.1l0,0c0,0,0,0,0-0.1H59.4L59.4,53.3L59.4,53.3z"/>
			<path class="st0" d="M59.5,53l1,0.2c0,0,0,0,0-0.1L59.5,53L59.5,53z"/>
			<path class="st0" d="M59.6,52.8l0.9,0.3l0,0c0,0,0,0,0-0.1L59.6,52.8L59.6,52.8z"/>
			<path class="st0" d="M59.7,52.4L59.7,52.4l0.9,0.5c0,0,0,0,0-0.1L59.7,52.4L59.7,52.4z"/>
			<path class="st0" d="M59.8,52.3l0.9,0.5l0,0c0,0,0,0,0-0.1L59.8,52.3L59.8,52.3z"/>
			<path class="st0" d="M59.9,52l0.8,0.6c0,0,0,0,0-0.1L59.9,52L59.9,52z"/>
			<path class="st0" d="M60.2,51.7L60.2,51.7l0.7,0.7l0,0c0,0,0,0,0-0.1L60.2,51.7L60.2,51.7z"/>
			<path class="st0" d="M60.4,51.5L60.4,51.5l0.6,0.8c0,0,0,0,0.1,0L60.4,51.5L60.4,51.5z"/>
			<path class="st0" d="M60.6,51.3L60.6,51.3l0.5,0.8c0,0,0,0,0.1,0L60.6,51.3L60.6,51.3z"/>
			<path class="st0" d="M60.9,51.2L60.9,51.2l0.4,0.8l0,0c0,0,0,0,0.1,0L60.9,51.2L60.9,51.2z"/>
			<path class="st0" d="M61.1,51L61.1,51l0.3,0.9c0,0,0,0,0.1,0L61.1,51L61.1,51z"/>
			<path class="st0" d="M61.4,51L61.4,51l0.2,0.9c0,0,0,0,0.1,0L61.4,51L61.4,51z"/>
			<path class="st0" d="M61.7,50.8L61.7,50.8l0.1,0.9l0,0c0,0,0,0,0.1,0L61.7,50.8L61.7,50.8z"/>
			<path class="st0" d="M62,51.8C62.1,51.8,62.1,51.8,62,51.8v-1h-0.1L62,51.8z"/>
			<path class="st0" d="M62.3,50.8L62.3,50.8l-0.1,1l0,0c0,0,0,0,0.1,0V50.8L62.3,50.8z"/>
			<path class="st0" d="M62.3,51.8L62.3,51.8C62.4,51.8,62.4,51.8,62.3,51.8l0.2-0.9h-0.1L62.3,51.8z"/>
			<path class="st0" d="M62.6,51.8L62.6,51.8l0.2-1h-0.1L62.6,51.8C62.6,51.8,62.6,51.8,62.6,51.8z"/>
			<path class="st0" d="M63.1,51L63.1,51l-0.4,0.8l0,0c0,0,0,0,0.1,0L63.1,51L63.1,51z"/>
			<path class="st0" d="M63.3,51.1L63.3,51.1l-0.5,0.8l0,0c0,0,0,0,0.1,0L63.3,51.1L63.3,51.1z"/>
			<polygon class="st0" points="63.5,51.2 63.1,52 63.1,52 63.1,52.1 63.6,51.2    "/>
			<path class="st0" d="M63.2,52.1L63.2,52.1C63.2,52.1,63.2,52.1,63.2,52.1l0.6-0.7l0,0l-0.1,0L63.2,52.1z"/>
			<polygon class="st0" points="63.3,52.2 63.4,52.3 64.1,51.6 64.1,51.6 64,51.5    "/>
			<rect x="63.4" y="52" transform="matrix(0.7447 -0.6674 0.6674 0.7447 -18.4285 55.9198)" class="st0" width="1" height="0.1"/>
			<path class="st0" d="M63.6,52.5L63.6,52.5C63.6,52.5,63.7,52.5,63.6,52.5l0.8-0.5l0,0l0-0.1L63.6,52.5z"/>
			<path class="st0" d="M63.7,52.6L63.7,52.6C63.7,52.7,63.7,52.7,63.7,52.6l0.9-0.4l0,0l0-0.1L63.7,52.6z"/>
			<path class="st0" d="M63.8,52.8L63.8,52.8C63.8,52.8,63.8,52.8,63.8,52.8l0.9-0.3l0,0l0-0.1L63.8,52.8z"/>
			<path class="st0" d="M63.9,53C63.9,53,63.9,53,63.9,53l0.9-0.2h0l0-0.1L63.9,53z"/>
			<path class="st0" d="M63.9,53.1C63.9,53.2,63.9,53.2,63.9,53.1l0.9-0.1l0-0.1L63.9,53.1z"/>
			<path class="st0" d="M64,53.3C64,53.4,64,53.4,64,53.3h0.9h0v-0.1L64,53.3z"/>
			<path class="st0" d="M64,53.5C64,53.6,64,53.6,64,53.5l1,0v-0.1L64,53.5L64,53.5z"/>
			<path class="st0" d="M64,53.9C64,53.9,64,53.9,64,53.9l0.9,0.3v-0.1L64,53.9z"/>
			<path class="st0" d="M64.9,53.9L64.9,53.9l-1-0.2l0,0c0,0,0,0,0,0.1L64.9,53.9L64.9,53.9z"/>
			<path class="st0" d="M64.8,54.4L64.8,54.4l-0.8-0.4h0l0,0c0,0,0,0,0,0.1L64.8,54.4L64.8,54.4z"/>
			<path class="st0" d="M63.8,54.2C63.8,54.3,63.8,54.3,63.8,54.2l0.8,0.4l0,0l0-0.1L63.8,54.2L63.8,54.2z"/>
			<path class="st0" d="M63.7,54.5l0.8,0.4l0,0l0-0.1l-0.8-0.5C63.8,54.4,63.7,54.4,63.7,54.5z"/>
			<path class="st0" d="M63.6,54.6l1.2,0.9l0-0.1L63.6,54.6C63.6,54.6,63.6,54.6,63.6,54.6z"/>
			<path class="st0" d="M63.6,54.7C63.6,54.8,63.5,54.8,63.6,54.7l2.2,2.1l0,0l0-0.1L63.6,54.7L63.6,54.7z"/>
			<path class="st0" d="M63.3,54.9l1.5,1.7l0.1,0L63.3,54.9L63.3,54.9C63.4,54.9,63.4,54.9,63.3,54.9C63.3,54.9,63.3,54.9,63.3,54.9     z"/>
			<path class="st0" d="M63.2,55l1.7,2.3l0.1,0L63.2,55C63.3,55,63.2,55,63.2,55z"/>
			<path class="st0" d="M63,55.1l1.2,2l0,0l0.1,0L63,55.1C63.1,55.1,63.1,55.1,63,55.1z"/>
			<path class="st0" d="M62.9,55.2l1.1,2.4l0,0l0.1,0L62.9,55.2C62.9,55.2,62.9,55.2,62.9,55.2z"/>
			<path class="st0" d="M62.7,55.2l0.5,1.4v0l0.1,0L62.7,55.2C62.7,55.2,62.7,55.2,62.7,55.2z"/>
			<path class="st0" d="M62.5,55.3l0.6,2.4h0.1L62.5,55.3C62.6,55.3,62.5,55.3,62.5,55.3z"/>
			<path class="st0" d="M54,71.4c0,0-0.3,0.3-0.1,0.6c0,0,0.3,0.4,0.7,0C54.6,72,53.9,72,54,71.4z"/>
			<path class="st0" d="M69.9,72c0.4,0.4,0.7,0,0.7,0c0.2-0.3-0.1-0.6-0.1-0.6C70.5,72,69.9,72,69.9,72z"/>
			<path class="st0" d="M56.5,71L56.3,71L56,71.6l0.2,0.1c0.2,0.1,0.4,0.1,0.5-0.1C56.7,71.3,56.7,71.2,56.5,71z"/>
			<path class="st0" d="M57.7,71.6c-0.2-0.1-0.4,0-0.4,0.2c-0.1,0.2,0,0.4,0.2,0.5s0.4,0,0.4-0.2C57.9,71.9,57.8,71.7,57.7,71.6z"/>
			<path class="st0" d="M61.7,72.7c-0.2,0-0.4,0.1-0.4,0.3c0,0.2,0.1,0.4,0.3,0.4c0.2,0,0.4-0.1,0.4-0.4     C62,72.9,61.9,72.7,61.7,72.7z"/>
			<path class="st0" d="M65,72.7l-0.2,0l0.1,0.3l0.2,0c0.1,0,0.1-0.1,0.1-0.2C65.1,72.8,65,72.7,65,72.7z"/>
			<path class="st0" d="M65,72.4c0-0.1-0.1-0.1-0.2-0.1l-0.2,0l0.1,0.3l0.2,0C65,72.6,65,72.5,65,72.4z"/>
			<path class="st0" d="M66.3,71.9c0,0,0,0-0.1,0L66,72l0.1,0.3l0.2-0.1c0.1,0,0.1-0.1,0.1-0.2C66.4,72,66.3,71.9,66.3,71.9z"/>
			<path class="st0" d="M67.5,71.5l0,0.3l0.2-0.1L67.5,71.5C67.5,71.4,67.4,71.4,67.5,71.5L67.5,71.5C67.4,71.4,67.5,71.4,67.5,71.5     z"/>
			<path class="st0" d="M70.1,71.6l-0.3-0.1c0.3-0.1,0.5-0.1,0.6,0l-0.4-0.3c-1.3-1.1-2.6-0.3-2.6-0.3c-1.4,0.8-3.2,1.5-5.2,1.5     c-2,0-3.8-0.7-5.2-1.5c0,0-1.4-0.8-2.6,0.3l-0.4,0.3c0.1,0,0.4,0,0.6,0l-0.3,0.1c0.4,0.2,0.2,0.4,0.2,0.4l0.4-0.4     c0.9,0.4,2,1,2,1c1.3,0.8,3.2,1.3,5.2,1.3l0,0l0,0c2,0,3.9-0.5,5.2-1.3c0,0,1.1-0.6,2-1l0.4,0.4C69.9,72,69.7,71.7,70.1,71.6z      M56.1,71.7l-0.2-0.2l0.5-0.8l0.2,0.2c0.2,0.2,0.3,0.4,0.2,0.6C56.6,71.8,56.3,71.9,56.1,71.7z M56.8,72.1L56.6,72l0.4-0.8     l0.1,0.1L56.8,72.1z M57.3,72.4C57,72.3,57,72,57.1,71.8s0.4-0.3,0.6-0.2c0.2,0.1,0.3,0.4,0.2,0.6C57.8,72.4,57.5,72.5,57.3,72.4     z M58.6,72.1c0,0,0-0.1-0.2-0.2c-0.1,0-0.2,0-0.2,0.1c-0.1,0.2,0.4,0.3,0.2,0.6c0,0.1-0.2,0.2-0.4,0.1c-0.2-0.1-0.2-0.2-0.2-0.2     l0.1-0.1c0,0,0,0.1,0.2,0.2c0.1,0,0.2,0,0.2-0.1c0.1-0.2-0.4-0.3-0.2-0.6c0-0.1,0.2-0.2,0.4-0.1c0.2,0.1,0.2,0.2,0.2,0.2     L58.6,72.1z M59.3,73.1c-0.2,0-0.3-0.2-0.2-0.4l0.2-0.6l0.1,0l-0.2,0.6C59.2,72.9,59.3,73,59.3,73.1c0.2,0,0.3-0.1,0.3-0.2     l0.2-0.6l0.1,0l-0.2,0.6C59.7,73.1,59.6,73.2,59.3,73.1z M60.6,73.4l-0.1,0l-0.3-0.6c0,0,0-0.2,0-0.2l0,0c0,0,0,0.1,0,0.1     l-0.1,0.6l-0.1,0l0.2-0.9l0.1,0l0.3,0.6c0,0,0,0.2,0,0.2l0,0c0,0,0-0.1,0-0.1l0.1-0.6l0.1,0L60.6,73.4z M61,73.5h-0.1l0.1-0.9     h0.1L61,73.5z M61.7,73.5c-0.3,0-0.4-0.2-0.4-0.5c0-0.3,0.2-0.4,0.5-0.4c0.3,0,0.4,0.2,0.4,0.5C62.1,73.3,61.9,73.5,61.7,73.5z      M62.9,73.5l-0.4-0.6c0,0-0.1-0.1-0.1-0.1l0,0c0,0,0,0.1,0,0.1l0,0.6h-0.1l0-0.9h0.1l0.4,0.6c0,0,0.1,0.1,0.1,0.1l0,0     c0,0,0-0.1,0-0.1l0-0.6H63l0,0.9H62.9z M63.8,73.4l-0.2-0.9l0.1,0l0.1,0.8l0.4-0.1v0.1L63.8,73.4z M64.4,73.3l-0.2-0.9l0.1,0     l0.2,0.9L64.4,73.3z M65,73.1l-0.3,0.1l-0.2-0.9l0.3-0.1c0.2,0,0.3,0,0.3,0.2c0,0.1,0,0.2-0.1,0.2l0,0c0.1,0,0.2,0.1,0.2,0.2     C65.3,73,65.2,73.1,65,73.1z M65.5,73l-0.3-0.9l0.5-0.2l0,0.1l-0.4,0.1l0.1,0.3l0.3-0.1l0,0.1l-0.3,0.1l0.1,0.3l0.4-0.1l0,0.1     L65.5,73z M66.7,72.6l-0.3-0.3l-0.2,0.1l0.1,0.3l-0.1,0l-0.3-0.8l0.2-0.1c0.1,0,0.1,0,0.2,0c0.1,0,0.2,0.1,0.2,0.2     c0,0.1,0,0.2-0.1,0.3l0,0c0,0,0,0,0,0l0.3,0.2L66.7,72.6z M67.1,72.4l-0.4-0.7l-0.3,0.1l0-0.1l0.7-0.3l0,0.1l-0.3,0.1l0.4,0.7     L67.1,72.4z M68,71.9l-0.2-0.2l-0.3,0.2l0,0.3l-0.1,0.1l-0.2-1l0.1-0.1L68,71.9L68,71.9z M68.5,71.6l-0.2,0.2L67.8,71l0.2-0.2     c0.2-0.2,0.5-0.1,0.6,0.2C68.8,71.2,68.8,71.5,68.5,71.6z"/>
			<path class="st0" d="M68.1,71L67.9,71l0.4,0.6l0.2-0.1c0.2-0.1,0.2-0.3,0.1-0.5C68.4,70.9,68.3,70.8,68.1,71z"/>
		</g>
	</g>
</g>
</svg>